<?xml version="1.0" standalone="no"?><!DOCTYPE svg PUBLIC "-//W3C//DTD SVG 20010904//EN"
 "http://www.w3.org/TR/2001/REC-SVG-20010904/DTD/svg10.dtd"><svg xmlns="http://www.w3.org/2000/svg" width="1829.3" height="368" version="1.0" viewBox="0 0 1372 276"><path d="M115 42 99 55l-18 1H62v16l-1 15-17 15-18 16v60l1 61 106 1h105v-61c0-57 0-61-2-63l-17-15-16-13V74l-1-16c0-2-3-2-18-2h-18l-16-14-18-14-17 14zm29 4 11 9-11 1h-24l-11-1 11-9 12-10 12 10zm52 59v43l-32 28-32 27-32-28-32-27V62h128v43zM62 142l-27-23 13-12 13-11 1 23v23zm157-13-14 11-2 2V96l14 12 13 11-11 10zM91 176l62 53 6 5H96l-63-1V128l58 49zm141 4v53l-32 1h-31l-16-13-16-14 34-29 46-40 14-11 1 53z"/><path d="m114 74-1 8c0 7 0 8 2 9s3 1 4-1c2-1 2-3 2-8l-1-8h-6zM150 75c-4 2-19 18-19 19l3 3c2 1 2 1 11-7l11-10c5-1 12 2 14 8s0 8-15 24c-16 16-18 17-26 13-5-3-7-2-8 1-1 7 14 11 23 6 4-2 32-30 33-33 3-8 0-18-7-23-5-3-15-4-20-1zM95 81c-2 2-1 5 6 11 7 7 9 8 11 5 2-2 0-4-6-11-7-6-9-7-11-5zM88 101c-5 4-1 6 8 6 6 0 8-1 8-2v-4c-1-2-14-3-16 0z"/><path d="M122 105c-4 1-6 3-18 14l-15 16c-8 13 1 29 16 29 7 0 10-2 19-10 6-6 7-8 7-10-2-4-5-2-13 5-8 8-12 9-17 7-4-2-7-6-7-12 0-3 1-4 13-16l15-15c4-2 9-1 13 2s9 0 6-5c-3-4-12-6-19-5zM160 131c-3 4 1 7 8 7s10-1 10-4-2-4-9-4l-9 1zM152 140c-1 2 0 3 6 10l9 7 4-4-7-8c-7-7-10-9-12-5zM146 146c-2 1-2 3-2 9v8h7v-7c0-10-1-13-5-10zM432 87v55l-3-4c-7-11-24-23-39-27-10-2-26-1-36 2-20 7-37 26-42 46-2 9-1 27 2 36 6 19 23 35 42 41 9 3 23 4 32 2 15-4 31-13 39-25l5-6v29h8V31h-8v56zm-40 33c17 5 34 23 38 41l2 14c0 15-5 27-17 39a52 52 0 0 1-40 17c-16 0-26-5-38-16a53 53 0 0 1-17-40c0-11 1-18 6-26 13-25 40-37 66-29zM1004 111l1 88c1 9 5 18 10 24 8 8 22 15 31 15 5 0 5 0 5-3 0-4 0-4-6-5l-11-3c-7-3-15-13-18-20l-2-6-1-85V31h-9v80zM1265 134v102h9v-32l1-32 31 32 30 32h12l-6-6a5237 5237 0 0 0-64-68 493 493 0 0 1 54-48c1-1 0-1-4-1h-6l-24 21-24 21V31h-9v103zM897 131c0 66 0 69 2 75 3 9 10 18 17 23 6 4 16 8 23 8l5 1v-8h-5c-17-2-31-15-33-33l-1-42v-34h38v-8h-38V63h-8v68zM1075 70c-3 2-3 8-1 11 3 2 11 2 13 0 2-3 1-9-1-11-2-3-8-3-11 0zM516 112c-22 5-42 24-47 47-2 7-2 23 0 31 3 15 16 32 29 40 14 8 32 11 47 8 16-4 31-14 39-26l4-6v30h8V113h-8v31l-3-5c-7-13-21-23-38-27-8-2-23-2-31 0zm25 6c8 1 20 7 27 13s14 17 17 25c2 5 3 9 3 19 0 14-3 21-10 32-6 8-12 14-21 19-9 4-16 5-28 5-12-1-19-3-28-10a55 55 0 0 1-25-46c0-16 5-29 16-40 8-8 18-14 27-16l7-1h14zM812 111c-13 2-25 9-36 20a59 59 0 0 0-17 47l3 15c6 19 22 36 41 43 6 2 10 2 19 3 19 0 31-4 44-15l7-5v-14l-8 8a54 54 0 0 1-75 6l-2-2 43-42 43-42-4-5c-6-6-16-12-24-15s-24-4-34-2zm26 8c7 2 16 7 21 11l3 3-40 39-40 39c-2 0-9-12-11-18-3-8-4-23-2-31 2-10 7-18 16-27 13-13 22-17 38-17l15 1zM1162 112c-12 3-22 10-29 21l-3 4v-24h-9v123h9v-37l1-43c4-24 30-42 54-38 16 3 31 16 36 32 2 6 2 10 2 46v40h9v-40c0-43 0-45-6-57-3-7-16-20-23-23-2-2-7-4-11-4-7-2-23-2-30 0zM626 126l55 112a8155 8155 0 0 0 60-124l-4-1h-4l-25 53-26 54-27-54-25-53h-10l6 13zM1076 175v61h9V113h-9v62zM962 223c-2 2-3 3-3 6 0 6 2 8 8 9 6 0 10-3 10-8s-1-6-4-8-8-1-11 1z"/></svg>